<svg xmlns="http://www.w3.org/2000/svg" xmlns:xlink="http://www.w3.org/1999/xlink" width="300" zoomAndPan="magnify" viewBox="0 0 224.87999 74.999997" height="100" preserveAspectRatio="xMidYMid meet" version="1.0"><defs><filter x="0%" y="0%" width="100%" height="100%" id="c1d24428bc"><feColorMatrix values="0 0 0 0 1 0 0 0 0 1 0 0 0 0 1 0 0 0 1 0" color-interpolation-filters="sRGB"/></filter><g/><clipPath id="3eba4bf29c"><path d="M 4 0.0195312 L 224.761719 0.0195312 L 224.761719 74.980469 L 4 74.980469 Z M 4 0.0195312 " clip-rule="nonzero"/></clipPath><clipPath id="a40d861d1e"><path d="M 0.558594 6 L 146 6 L 146 44 L 0.558594 44 Z M 0.558594 6 " clip-rule="nonzero"/></clipPath><clipPath id="1f019b9a71"><rect x="0" width="146" y="0" height="38"/></clipPath><clipPath id="62cc14e8b8"><path d="M 25 0.0195312 L 220.761719 0.0195312 L 220.761719 74.980469 L 25 74.980469 Z M 25 0.0195312 " clip-rule="nonzero"/></clipPath><clipPath id="640f9be14e"><path d="M 1.152344 0.0195312 L 195.761719 0.0195312 L 195.761719 74.980469 L 1.152344 74.980469 Z M 1.152344 0.0195312 " clip-rule="nonzero"/></clipPath><clipPath id="3fc74b39d6"><path d="M 0.152344 0.0195312 L 194.761719 0.0195312 L 194.761719 74.980469 L 0.152344 74.980469 Z M 0.152344 0.0195312 " clip-rule="nonzero"/></clipPath><clipPath id="1bef7dc357"><path d="M 23.269531 0.0195312 L 194.761719 0.0195312 L 194.761719 74.980469 L 23.269531 74.980469 Z M 23.269531 0.0195312 " clip-rule="nonzero"/></clipPath><linearGradient x1="0.226442" gradientTransform="matrix(0.436518, 0, 0, 0.436625, 71.211629, 27.526664)" y1="218.734554" x2="282.495425" gradientUnits="userSpaceOnUse" y2="-63.534424" id="9c85956068"><stop stop-opacity="1" stop-color="rgb(57.649231%, 34.509277%, 96.859741%)" offset="0"/><stop stop-opacity="1" stop-color="rgb(57.649231%, 34.509277%, 96.859741%)" offset="0.25"/><stop stop-opacity="1" stop-color="rgb(57.649231%, 34.509277%, 96.859741%)" offset="0.304108"/><stop stop-opacity="1" stop-color="rgb(57.649231%, 34.509277%, 96.859741%)" offset="0.3125"/><stop stop-opacity="1" stop-color="rgb(57.36084%, 34.872437%, 96.807861%)" offset="0.316406"/><stop stop-opacity="1" stop-color="rgb(57.072449%, 35.235596%, 96.755981%)" offset="0.320312"/><stop stop-opacity="1" stop-color="rgb(56.77948%, 35.603333%, 96.702576%)" offset="0.324219"/><stop stop-opacity="1" stop-color="rgb(56.488037%, 35.972595%, 96.650696%)" offset="0.328125"/><stop stop-opacity="1" stop-color="rgb(56.195068%, 36.340332%, 96.59729%)" offset="0.332031"/><stop stop-opacity="1" stop-color="rgb(55.903625%, 36.708069%, 96.54541%)" offset="0.335938"/><stop stop-opacity="1" stop-color="rgb(55.610657%, 37.075806%, 96.492004%)" offset="0.339844"/><stop stop-opacity="1" stop-color="rgb(55.319214%, 37.445068%, 96.440125%)" offset="0.34375"/><stop stop-opacity="1" stop-color="rgb(55.026245%, 37.812805%, 96.386719%)" offset="0.347656"/><stop stop-opacity="1" stop-color="rgb(54.734802%, 38.182068%, 96.334839%)" offset="0.351562"/><stop stop-opacity="1" stop-color="rgb(54.441833%, 38.549805%, 96.281433%)" offset="0.355469"/><stop stop-opacity="1" stop-color="rgb(54.150391%, 38.917542%, 96.229553%)" offset="0.359375"/><stop stop-opacity="1" stop-color="rgb(53.857422%, 39.285278%, 96.176147%)" offset="0.363281"/><stop stop-opacity="1" stop-color="rgb(53.565979%, 39.654541%, 96.124268%)" offset="0.367188"/><stop stop-opacity="1" stop-color="rgb(53.27301%, 40.022278%, 96.070862%)" offset="0.371094"/><stop stop-opacity="1" stop-color="rgb(52.981567%, 40.390015%, 96.018982%)" offset="0.375"/><stop stop-opacity="1" stop-color="rgb(52.688599%, 40.757751%, 95.965576%)" offset="0.378906"/><stop stop-opacity="1" stop-color="rgb(52.397156%, 41.127014%, 95.913696%)" offset="0.382812"/><stop stop-opacity="1" stop-color="rgb(52.104187%, 41.494751%, 95.860291%)" offset="0.386719"/><stop stop-opacity="1" stop-color="rgb(51.812744%, 41.864014%, 95.808411%)" offset="0.390625"/><stop stop-opacity="1" stop-color="rgb(51.519775%, 42.23175%, 95.755005%)" offset="0.394531"/><stop stop-opacity="1" stop-color="rgb(51.228333%, 42.599487%, 95.703125%)" offset="0.398438"/><stop stop-opacity="1" stop-color="rgb(50.935364%, 42.967224%, 95.649719%)" offset="0.402344"/><stop stop-opacity="1" stop-color="rgb(50.643921%, 43.336487%, 95.597839%)" offset="0.40625"/><stop stop-opacity="1" stop-color="rgb(50.350952%, 43.704224%, 95.544434%)" offset="0.410156"/><stop stop-opacity="1" stop-color="rgb(50.059509%, 44.07196%, 95.492554%)" offset="0.414062"/><stop stop-opacity="1" stop-color="rgb(49.766541%, 44.439697%, 95.439148%)" offset="0.417969"/><stop stop-opacity="1" stop-color="rgb(49.475098%, 44.80896%, 95.387268%)" offset="0.421875"/><stop stop-opacity="1" stop-color="rgb(49.182129%, 45.176697%, 95.333862%)" offset="0.425781"/><stop stop-opacity="1" stop-color="rgb(48.890686%, 45.545959%, 95.281982%)" offset="0.429687"/><stop stop-opacity="1" stop-color="rgb(48.597717%, 45.913696%, 95.228577%)" offset="0.433594"/><stop stop-opacity="1" stop-color="rgb(48.306274%, 46.281433%, 95.176697%)" offset="0.4375"/><stop stop-opacity="1" stop-color="rgb(48.013306%, 46.64917%, 95.124817%)" offset="0.441406"/><stop stop-opacity="1" stop-color="rgb(47.721863%, 47.018433%, 95.072937%)" offset="0.445312"/><stop stop-opacity="1" stop-color="rgb(47.428894%, 47.386169%, 95.019531%)" offset="0.449219"/><stop stop-opacity="1" stop-color="rgb(47.137451%, 47.755432%, 94.967651%)" offset="0.453125"/><stop stop-opacity="1" stop-color="rgb(46.844482%, 48.123169%, 94.914246%)" offset="0.457031"/><stop stop-opacity="1" stop-color="rgb(46.55304%, 48.490906%, 94.862366%)" offset="0.460938"/><stop stop-opacity="1" stop-color="rgb(46.260071%, 48.858643%, 94.80896%)" offset="0.464844"/><stop stop-opacity="1" stop-color="rgb(45.968628%, 49.227905%, 94.75708%)" offset="0.46875"/><stop stop-opacity="1" stop-color="rgb(45.675659%, 49.595642%, 94.703674%)" offset="0.472656"/><stop stop-opacity="1" stop-color="rgb(45.384216%, 49.963379%, 94.651794%)" offset="0.476562"/><stop stop-opacity="1" stop-color="rgb(45.091248%, 50.331116%, 94.598389%)" offset="0.480469"/><stop stop-opacity="1" stop-color="rgb(44.799805%, 50.700378%, 94.546509%)" offset="0.484375"/><stop stop-opacity="1" stop-color="rgb(44.506836%, 51.068115%, 94.493103%)" offset="0.488281"/><stop stop-opacity="1" stop-color="rgb(44.215393%, 51.437378%, 94.441223%)" offset="0.492187"/><stop stop-opacity="1" stop-color="rgb(43.922424%, 51.805115%, 94.387817%)" offset="0.496094"/><stop stop-opacity="1" stop-color="rgb(43.630981%, 52.172852%, 94.335938%)" offset="0.5"/><stop stop-opacity="1" stop-color="rgb(43.338013%, 52.540588%, 94.282532%)" offset="0.503906"/><stop stop-opacity="1" stop-color="rgb(43.04657%, 52.909851%, 94.230652%)" offset="0.507812"/><stop stop-opacity="1" stop-color="rgb(42.753601%, 53.277588%, 94.177246%)" offset="0.511719"/><stop stop-opacity="1" stop-color="rgb(42.462158%, 53.645325%, 94.125366%)" offset="0.515625"/><stop stop-opacity="1" stop-color="rgb(42.169189%, 54.013062%, 94.07196%)" offset="0.519531"/><stop stop-opacity="1" stop-color="rgb(41.877747%, 54.382324%, 94.020081%)" offset="0.523438"/><stop stop-opacity="1" stop-color="rgb(41.584778%, 54.750061%, 93.966675%)" offset="0.527344"/><stop stop-opacity="1" stop-color="rgb(41.293335%, 55.119324%, 93.914795%)" offset="0.53125"/><stop stop-opacity="1" stop-color="rgb(41.000366%, 55.487061%, 93.861389%)" offset="0.535156"/><stop stop-opacity="1" stop-color="rgb(40.708923%, 55.854797%, 93.809509%)" offset="0.539062"/><stop stop-opacity="1" stop-color="rgb(40.415955%, 56.222534%, 93.756104%)" offset="0.542969"/><stop stop-opacity="1" stop-color="rgb(40.124512%, 56.591797%, 93.704224%)" offset="0.546875"/><stop stop-opacity="1" stop-color="rgb(39.831543%, 56.959534%, 93.650818%)" offset="0.550781"/><stop stop-opacity="1" stop-color="rgb(39.5401%, 57.327271%, 93.598938%)" offset="0.554688"/><stop stop-opacity="1" stop-color="rgb(39.247131%, 57.695007%, 93.545532%)" offset="0.558594"/><stop stop-opacity="1" stop-color="rgb(38.955688%, 58.06427%, 93.493652%)" offset="0.5625"/><stop stop-opacity="1" stop-color="rgb(38.66272%, 58.432007%, 93.440247%)" offset="0.566406"/><stop stop-opacity="1" stop-color="rgb(38.371277%, 58.80127%, 93.388367%)" offset="0.570312"/><stop stop-opacity="1" stop-color="rgb(38.000488%, 59.172058%, 93.328857%)" offset="0.574219"/><stop stop-opacity="1" stop-color="rgb(37.6297%, 59.542847%, 93.269348%)" offset="0.578125"/><stop stop-opacity="1" stop-color="rgb(37.156677%, 59.916687%, 93.199158%)" offset="0.582031"/><stop stop-opacity="1" stop-color="rgb(36.683655%, 60.290527%, 93.128967%)" offset="0.585938"/><stop stop-opacity="1" stop-color="rgb(36.209106%, 60.664368%, 93.058777%)" offset="0.589844"/><stop stop-opacity="1" stop-color="rgb(35.736084%, 61.038208%, 92.988586%)" offset="0.59375"/><stop stop-opacity="1" stop-color="rgb(35.263062%, 61.412048%, 92.918396%)" offset="0.597656"/><stop stop-opacity="1" stop-color="rgb(34.790039%, 61.785889%, 92.848206%)" offset="0.601562"/><stop stop-opacity="1" stop-color="rgb(34.315491%, 62.159729%, 92.778015%)" offset="0.605469"/><stop stop-opacity="1" stop-color="rgb(33.842468%, 62.533569%, 92.707825%)" offset="0.609375"/><stop stop-opacity="1" stop-color="rgb(33.369446%, 62.90741%, 92.637634%)" offset="0.613281"/><stop stop-opacity="1" stop-color="rgb(32.896423%, 63.28125%, 92.56897%)" offset="0.617188"/><stop stop-opacity="1" stop-color="rgb(32.421875%, 63.65509%, 92.498779%)" offset="0.621094"/><stop stop-opacity="1" stop-color="rgb(31.948853%, 64.028931%, 92.428589%)" offset="0.625"/><stop stop-opacity="1" stop-color="rgb(31.47583%, 64.402771%, 92.358398%)" offset="0.628906"/><stop stop-opacity="1" stop-color="rgb(31.002808%, 64.776611%, 92.288208%)" offset="0.632812"/><stop stop-opacity="1" stop-color="rgb(30.528259%, 65.150452%, 92.218018%)" offset="0.636719"/><stop stop-opacity="1" stop-color="rgb(30.055237%, 65.524292%, 92.147827%)" offset="0.640625"/><stop stop-opacity="1" stop-color="rgb(29.582214%, 65.898132%, 92.077637%)" offset="0.644531"/><stop stop-opacity="1" stop-color="rgb(29.109192%, 66.271973%, 92.007446%)" offset="0.648438"/><stop stop-opacity="1" stop-color="rgb(28.634644%, 66.645813%, 91.937256%)" offset="0.652344"/><stop stop-opacity="1" stop-color="rgb(28.161621%, 67.019653%, 91.868591%)" offset="0.65625"/><stop stop-opacity="1" stop-color="rgb(27.688599%, 67.393494%, 91.798401%)" offset="0.660156"/><stop stop-opacity="1" stop-color="rgb(27.215576%, 67.767334%, 91.72821%)" offset="0.664062"/><stop stop-opacity="1" stop-color="rgb(26.741028%, 68.141174%, 91.65802%)" offset="0.667969"/><stop stop-opacity="1" stop-color="rgb(26.268005%, 68.515015%, 91.58783%)" offset="0.671875"/><stop stop-opacity="1" stop-color="rgb(25.794983%, 68.888855%, 91.517639%)" offset="0.675781"/><stop stop-opacity="1" stop-color="rgb(25.32196%, 69.262695%, 91.447449%)" offset="0.679688"/><stop stop-opacity="1" stop-color="rgb(24.847412%, 69.636536%, 91.377258%)" offset="0.683594"/><stop stop-opacity="1" stop-color="rgb(24.37439%, 70.010376%, 91.307068%)" offset="0.6875"/><stop stop-opacity="1" stop-color="rgb(23.901367%, 70.384216%, 91.236877%)" offset="0.691406"/><stop stop-opacity="1" stop-color="rgb(23.428345%, 70.758057%, 91.168213%)" offset="0.695312"/><stop stop-opacity="1" stop-color="rgb(22.953796%, 71.131897%, 91.098022%)" offset="0.699219"/><stop stop-opacity="1" stop-color="rgb(22.480774%, 71.505737%, 91.027832%)" offset="0.703125"/><stop stop-opacity="1" stop-color="rgb(22.007751%, 71.879578%, 90.957642%)" offset="0.707031"/><stop stop-opacity="1" stop-color="rgb(21.534729%, 72.253418%, 90.887451%)" offset="0.710937"/><stop stop-opacity="1" stop-color="rgb(21.060181%, 72.627258%, 90.817261%)" offset="0.714844"/><stop stop-opacity="1" stop-color="rgb(20.587158%, 73.001099%, 90.74707%)" offset="0.71875"/><stop stop-opacity="1" stop-color="rgb(20.114136%, 73.374939%, 90.67688%)" offset="0.722656"/><stop stop-opacity="1" stop-color="rgb(19.641113%, 73.748779%, 90.606689%)" offset="0.726562"/><stop stop-opacity="1" stop-color="rgb(19.166565%, 74.12262%, 90.536499%)" offset="0.730469"/><stop stop-opacity="1" stop-color="rgb(18.693542%, 74.49646%, 90.467834%)" offset="0.734375"/><stop stop-opacity="1" stop-color="rgb(18.22052%, 74.8703%, 90.397644%)" offset="0.738281"/><stop stop-opacity="1" stop-color="rgb(17.747498%, 75.244141%, 90.327454%)" offset="0.742187"/><stop stop-opacity="1" stop-color="rgb(17.272949%, 75.617981%, 90.257263%)" offset="0.746094"/><stop stop-opacity="1" stop-color="rgb(16.799927%, 75.991821%, 90.187073%)" offset="0.75"/><stop stop-opacity="1" stop-color="rgb(16.326904%, 76.365662%, 90.116882%)" offset="0.753906"/><stop stop-opacity="1" stop-color="rgb(15.853882%, 76.739502%, 90.046692%)" offset="0.757812"/><stop stop-opacity="1" stop-color="rgb(15.379333%, 77.113342%, 89.976501%)" offset="0.761719"/><stop stop-opacity="1" stop-color="rgb(14.906311%, 77.487183%, 89.907837%)" offset="0.765625"/><stop stop-opacity="1" stop-color="rgb(14.433289%, 77.861023%, 89.837646%)" offset="0.769531"/><stop stop-opacity="1" stop-color="rgb(13.960266%, 78.234863%, 89.767456%)" offset="0.773437"/><stop stop-opacity="1" stop-color="rgb(13.485718%, 78.608704%, 89.697266%)" offset="0.777344"/><stop stop-opacity="1" stop-color="rgb(13.012695%, 78.982544%, 89.627075%)" offset="0.78125"/><stop stop-opacity="1" stop-color="rgb(12.539673%, 79.356384%, 89.556885%)" offset="0.785156"/><stop stop-opacity="1" stop-color="rgb(12.06665%, 79.730225%, 89.486694%)" offset="0.789062"/><stop stop-opacity="1" stop-color="rgb(11.592102%, 80.104065%, 89.416504%)" offset="0.792969"/><stop stop-opacity="1" stop-color="rgb(11.11908%, 80.477905%, 89.346313%)" offset="0.796875"/><stop stop-opacity="1" stop-color="rgb(10.646057%, 80.851746%, 89.276123%)" offset="0.800781"/><stop stop-opacity="1" stop-color="rgb(10.173035%, 81.225586%, 89.207458%)" offset="0.804687"/><stop stop-opacity="1" stop-color="rgb(9.698486%, 81.599426%, 89.137268%)" offset="0.808594"/><stop stop-opacity="1" stop-color="rgb(9.225464%, 81.974792%, 89.067078%)" offset="0.8125"/><stop stop-opacity="1" stop-color="rgb(8.752441%, 82.348633%, 88.996887%)" offset="0.816406"/><stop stop-opacity="1" stop-color="rgb(8.279419%, 82.722473%, 88.926697%)" offset="0.820312"/><stop stop-opacity="1" stop-color="rgb(7.804871%, 83.096313%, 88.856506%)" offset="0.824219"/><stop stop-opacity="1" stop-color="rgb(7.331848%, 83.470154%, 88.786316%)" offset="0.828125"/><stop stop-opacity="1" stop-color="rgb(6.858826%, 83.843994%, 88.716125%)" offset="0.832031"/><stop stop-opacity="1" stop-color="rgb(6.385803%, 84.217834%, 88.645935%)" offset="0.835938"/><stop stop-opacity="1" stop-color="rgb(6.32782%, 84.263611%, 88.63678%)" offset="0.84375"/><stop stop-opacity="1" stop-color="rgb(6.269836%, 84.309387%, 88.62915%)" offset="0.875"/><stop stop-opacity="1" stop-color="rgb(6.269836%, 84.309387%, 88.62915%)" offset="1"/></linearGradient><clipPath id="3be2d410d0"><rect x="0" width="195" y="0" height="75"/></clipPath><clipPath id="b319e85df8"><path d="M 0.152344 0.0195312 L 194.761719 0.0195312 L 194.761719 74.980469 L 0.152344 74.980469 Z M 0.152344 0.0195312 " clip-rule="nonzero"/></clipPath><clipPath id="7bc6def471"><rect x="0" width="195" y="0" height="75"/></clipPath><clipPath id="47dff9e801"><rect x="0" width="195" y="0" height="75"/></clipPath><mask id="274a06dc44"><g filter="url(#c1d24428bc)"><g transform="matrix(1, 0, 0, 1, 0.000000000000003553, -0.000000000000000847)"><g clip-path="url(#47dff9e801)"><g clip-path="url(#b319e85df8)"><g transform="matrix(1, 0, 0, 1, 0.000000000000003553, -0.000000000000000847)"><g clip-path="url(#7bc6def471)"><g fill="#000000" fill-opacity="1"><g transform="translate(94.353402, 61.573867)"><g><path d="M 24.03125 -2.625 C 24.507812 -1.894531 24.914062 -1.320312 25.25 -0.90625 C 25.59375 -0.488281 25.882812 -0.1875 26.125 0 L 16.1875 0 L 10.65625 -8.703125 L 9.375 -8.171875 L 9.375 -2.953125 C 9.375 -2.023438 9.425781 -1.34375 9.53125 -0.90625 C 9.632812 -0.46875 9.796875 -0.164062 10.015625 0 L 0.703125 0 C 0.898438 -0.164062 1.054688 -0.46875 1.171875 -0.90625 C 1.285156 -1.34375 1.34375 -2.023438 1.34375 -2.953125 L 1.34375 -21.90625 C 1.34375 -22.820312 1.285156 -23.5 1.171875 -23.9375 C 1.054688 -24.375 0.898438 -24.675781 0.703125 -24.84375 L 16.015625 -24.84375 C 17.859375 -24.84375 19.429688 -24.191406 20.734375 -22.890625 C 21.367188 -22.273438 21.851562 -21.5625 22.1875 -20.75 C 22.519531 -19.9375 22.6875 -19.078125 22.6875 -18.171875 L 22.6875 -13.703125 L 14.59375 -10.328125 C 15.707031 -10.660156 16.8125 -10.613281 17.90625 -10.1875 C 19.007812 -9.757812 19.878906 -9.050781 20.515625 -8.0625 Z M 9.375 -8.265625 L 14.65625 -10.515625 L 14.65625 -21.90625 C 14.65625 -22.707031 14.382812 -23.378906 13.84375 -23.921875 C 13.25 -24.472656 12.5625 -24.75 11.78125 -24.75 C 11.382812 -24.695312 11.03125 -24.578125 10.71875 -24.390625 C 10.289062 -24.128906 9.957031 -23.773438 9.71875 -23.328125 C 9.488281 -22.878906 9.375 -22.40625 9.375 -21.90625 Z M 9.375 -8.265625 "/></g></g></g><g fill="#000000" fill-opacity="1"><g transform="translate(116.855894, 61.573867)"><g><path d="M 20.703125 -6.25 C 21.078125 -6.625 21.382812 -7.015625 21.625 -7.421875 C 21.007812 -5.671875 19.976562 -4.179688 18.53125 -2.953125 C 17.4375 -2.023438 16.226562 -1.304688 14.90625 -0.796875 C 13.582031 -0.285156 12.210938 -0.0195312 10.796875 0 C 9.398438 0 8.09375 -0.257812 6.875 -0.78125 C 5.65625 -1.300781 4.582031 -2.019531 3.65625 -2.9375 C 2.726562 -3.863281 2.003906 -4.9375 1.484375 -6.15625 C 0.960938 -7.375 0.703125 -8.679688 0.703125 -10.078125 C 0.703125 -11.472656 0.960938 -12.785156 1.484375 -14.015625 C 2.003906 -15.253906 2.726562 -16.332031 3.65625 -17.25 C 4.582031 -18.175781 5.65625 -18.898438 6.875 -19.421875 C 8.09375 -19.941406 9.398438 -20.203125 10.796875 -20.203125 L 11.71875 -20.203125 C 13.28125 -20.203125 14.738281 -19.863281 16.09375 -19.1875 C 17.457031 -18.507812 18.617188 -17.582031 19.578125 -16.40625 C 20.535156 -15.238281 21.191406 -13.890625 21.546875 -12.359375 L 8.484375 -12.359375 L 8.484375 -11.671875 C 8.484375 -10.441406 8.753906 -9.300781 9.296875 -8.25 C 9.847656 -7.195312 10.601562 -6.316406 11.5625 -5.609375 C 12.519531 -4.898438 13.597656 -4.460938 14.796875 -4.296875 C 15.890625 -4.128906 16.953125 -4.222656 17.984375 -4.578125 C 19.015625 -4.929688 19.921875 -5.488281 20.703125 -6.25 Z M 8.484375 -17.4375 L 8.484375 -12.5 L 13.78125 -12.5 L 13.78125 -17.4375 C 13.78125 -18.164062 13.523438 -18.785156 13.015625 -19.296875 C 12.503906 -19.804688 11.878906 -20.0625 11.140625 -20.0625 C 10.410156 -20.0625 9.785156 -19.804688 9.265625 -19.296875 C 8.742188 -18.785156 8.484375 -18.164062 8.484375 -17.4375 Z M 8.484375 -17.4375 "/></g></g></g><g fill="#000000" fill-opacity="1"><g transform="translate(139.18172, 61.573867)"><g><path d="M 23.390625 -2.40625 C 23.390625 -1.988281 23.582031 -1.660156 23.96875 -1.421875 C 24.363281 -1.179688 24.71875 -1.21875 25.03125 -1.53125 C 23.988281 -0.363281 22.675781 0.21875 21.09375 0.21875 C 20.1875 0.21875 19.335938 0.015625 18.546875 -0.390625 C 17.753906 -0.796875 17.082031 -1.351562 16.53125 -2.0625 C 15.988281 -2.769531 15.640625 -3.570312 15.484375 -4.46875 C 15.078125 -3.78125 14.550781 -3.085938 13.90625 -2.390625 C 13.269531 -1.691406 12.519531 -1.117188 11.65625 -0.671875 C 10.789062 -0.222656 9.78125 0 8.625 0 C 7.1875 0 5.863281 -0.453125 4.65625 -1.359375 C 3.445312 -2.273438 2.484375 -3.492188 1.765625 -5.015625 C 1.054688 -6.546875 0.703125 -8.234375 0.703125 -10.078125 C 0.703125 -11.953125 1.054688 -13.648438 1.765625 -15.171875 C 2.484375 -16.703125 3.445312 -17.921875 4.65625 -18.828125 C 5.863281 -19.742188 7.1875 -20.203125 8.625 -20.203125 C 9.6875 -20.203125 10.601562 -20.03125 11.375 -19.6875 C 12.144531 -19.34375 12.789062 -18.914062 13.3125 -18.40625 C 13.832031 -17.894531 14.238281 -17.378906 14.53125 -16.859375 C 14.832031 -16.335938 15.046875 -15.90625 15.171875 -15.5625 C 15.304688 -15.21875 15.375 -15.046875 15.375 -15.046875 L 15.375 -21.90625 C 15.375 -22.820312 15.3125 -23.5 15.1875 -23.9375 C 15.070312 -24.375 14.921875 -24.675781 14.734375 -24.84375 L 24.03125 -24.84375 C 23.84375 -24.675781 23.6875 -24.375 23.5625 -23.9375 C 23.445312 -23.5 23.390625 -22.820312 23.390625 -21.90625 Z M 13.390625 -3.515625 C 13.785156 -3.535156 14.164062 -3.632812 14.53125 -3.8125 C 14.90625 -3.988281 15.207031 -4.234375 15.4375 -4.546875 C 15.414062 -4.710938 15.398438 -4.878906 15.390625 -5.046875 C 15.378906 -5.210938 15.375 -5.375 15.375 -5.53125 L 15.375 -14.09375 C 15.375 -14.851562 15.128906 -15.472656 14.640625 -15.953125 C 14.160156 -16.441406 13.644531 -16.6875 13.09375 -16.6875 C 12.363281 -16.6875 11.660156 -16.410156 10.984375 -15.859375 C 10.304688 -15.316406 9.753906 -14.554688 9.328125 -13.578125 C 8.910156 -12.597656 8.703125 -11.445312 8.703125 -10.125 C 8.703125 -9.101562 8.832031 -8.179688 9.09375 -7.359375 C 9.351562 -6.546875 9.695312 -5.84375 10.125 -5.25 C 11 -4.09375 12.050781 -3.515625 13.28125 -3.515625 Z M 13.390625 -3.515625 "/></g></g></g><g fill="#000000" fill-opacity="1"><g transform="translate(163.778966, 61.573867)"><g><path d="M 23.578125 -3.34375 C 23.640625 -3.082031 23.789062 -2.875 24.03125 -2.71875 C 24.269531 -2.5625 24.523438 -2.492188 24.796875 -2.515625 C 25.066406 -2.546875 25.257812 -2.675781 25.375 -2.90625 C 25.019531 -2.175781 24.523438 -1.570312 23.890625 -1.09375 C 23.253906 -0.625 22.53125 -0.296875 21.71875 -0.109375 C 20.726562 0.078125 19.769531 0.0234375 18.84375 -0.265625 C 17.925781 -0.554688 17.125 -1.050781 16.4375 -1.75 C 15.75 -2.445312 15.273438 -3.296875 15.015625 -4.296875 L 14.703125 -5.46875 C 14.628906 -4.832031 14.453125 -4.226562 14.171875 -3.65625 C 13.546875 -2.40625 12.703125 -1.441406 11.640625 -0.765625 C 10.578125 -0.0859375 9.4375 0.3125 8.21875 0.4375 C 7 0.570312 5.835938 0.429688 4.734375 0.015625 C 3.640625 -0.398438 2.71875 -1.0625 1.96875 -1.96875 C 1.226562 -2.882812 0.820312 -4.039062 0.75 -5.4375 C 0.695312 -6.570312 0.9375 -7.519531 1.46875 -8.28125 C 2 -9.050781 2.707031 -9.679688 3.59375 -10.171875 C 4.488281 -10.660156 5.4375 -11.03125 6.4375 -11.28125 C 7.445312 -11.539062 8.398438 -11.722656 9.296875 -11.828125 C 10.203125 -11.941406 10.941406 -12.007812 11.515625 -12.03125 C 12.097656 -12.050781 12.390625 -12.0625 12.390625 -12.0625 L 12.890625 -12.0625 L 11.921875 -15.484375 C 11.710938 -16.304688 11.273438 -16.914062 10.609375 -17.3125 C 9.953125 -17.71875 9.238281 -17.890625 8.46875 -17.828125 C 7.695312 -17.773438 7.03125 -17.429688 6.46875 -16.796875 C 7.34375 -17.785156 8.335938 -18.507812 9.453125 -18.96875 C 10.578125 -19.4375 11.722656 -19.65625 12.890625 -19.625 C 14.066406 -19.601562 15.191406 -19.34375 16.265625 -18.84375 C 17.347656 -18.351562 18.285156 -17.648438 19.078125 -16.734375 C 19.867188 -15.828125 20.441406 -14.734375 20.796875 -13.453125 L 22.296875 -8.0625 Z M 12.359375 -2.84375 C 13.160156 -2.957031 13.765625 -3.347656 14.171875 -4.015625 C 14.617188 -4.671875 14.722656 -5.390625 14.484375 -6.171875 L 12.890625 -11.96875 C 12.035156 -11.75 11.28125 -11.328125 10.625 -10.703125 C 9.976562 -10.078125 9.488281 -9.34375 9.15625 -8.5 C 8.820312 -7.65625 8.679688 -6.773438 8.734375 -5.859375 C 8.773438 -5.003906 9.113281 -4.28125 9.75 -3.6875 C 10.394531 -3.09375 11.15625 -2.796875 12.03125 -2.796875 C 12.175781 -2.796875 12.285156 -2.8125 12.359375 -2.84375 Z M 12.359375 -2.84375 "/></g></g></g></g></g></g></g></g></g></mask><clipPath id="c0d0291715"><path d="M 23.269531 0.0195312 L 194.761719 0.0195312 L 194.761719 74.980469 L 23.269531 74.980469 Z M 23.269531 0.0195312 " clip-rule="nonzero"/></clipPath><clipPath id="e0aa980c30"><rect x="0" width="195" y="0" height="75"/></clipPath><clipPath id="db9ca652f4"><rect x="0" width="195" y="0" height="75"/></clipPath><clipPath id="b0f74cef94"><rect x="0" width="196" y="0" height="75"/></clipPath><clipPath id="2146336493"><rect x="0" width="221" y="0" height="75"/></clipPath></defs><g clip-path="url(#3eba4bf29c)"><g transform="matrix(1, 0, 0, 1, 4, -0.000000000000000847)"><g clip-path="url(#2146336493)"><g clip-path="url(#a40d861d1e)"><g transform="matrix(1, 0, 0, 1, 0.000000000000000444, 6)"><g clip-path="url(#1f019b9a71)"><g fill="#ffffff" fill-opacity="1"><g transform="translate(0.834342, 28.912372)"><g><path d="M 7.734375 -22.671875 C 7.734375 -21.921875 8.082031 -21.28125 8.78125 -20.75 C 9.476562 -20.226562 10.398438 -19.742188 11.546875 -19.296875 C 12.691406 -18.859375 13.953125 -18.421875 15.328125 -17.984375 C 16.710938 -17.546875 18.09375 -17.050781 19.46875 -16.5 C 20.851562 -15.945312 22.117188 -15.273438 23.265625 -14.484375 C 24.410156 -13.703125 25.332031 -12.75 26.03125 -11.625 C 26.726562 -10.5 27.066406 -9.148438 27.046875 -7.578125 C 27.046875 -5.828125 26.53125 -4.300781 25.5 -3 C 24.46875 -1.695312 23.046875 -0.695312 21.234375 0 C 19.429688 0.695312 17.359375 1.046875 15.015625 1.046875 C 13.953125 1.046875 12.890625 0.96875 11.828125 0.8125 C 10.773438 0.65625 9.75 0.410156 8.75 0.078125 C 8.125 -0.128906 7.507812 -0.359375 6.90625 -0.609375 C 6.300781 -0.867188 5.710938 -1.15625 5.140625 -1.46875 C 4.347656 -1.90625 3.585938 -2.390625 2.859375 -2.921875 C 2.140625 -3.453125 1.445312 -4.023438 0.78125 -4.640625 L 5.1875 -8.75 C 4.800781 -7.71875 4.632812 -6.644531 4.6875 -5.53125 C 4.738281 -4.425781 5.097656 -3.394531 5.765625 -2.4375 C 6.429688 -1.476562 7.488281 -0.695312 8.9375 -0.09375 C 10.382812 0.507812 12.289062 0.835938 14.65625 0.890625 C 16.769531 0.941406 18.488281 0.554688 19.8125 -0.265625 C 21.144531 -1.097656 21.828125 -2.207031 21.859375 -3.59375 C 21.859375 -4.269531 21.507812 -4.832031 20.8125 -5.28125 C 20.113281 -5.726562 19.191406 -6.132812 18.046875 -6.5 C 16.898438 -6.863281 15.632812 -7.238281 14.25 -7.625 C 12.875 -8.007812 11.492188 -8.460938 10.109375 -8.984375 C 8.734375 -9.515625 7.472656 -10.1875 6.328125 -11 C 5.179688 -11.8125 4.257812 -12.820312 3.5625 -14.03125 C 2.863281 -15.25 2.523438 -16.722656 2.546875 -18.453125 C 2.578125 -20.179688 3.078125 -21.695312 4.046875 -23 C 5.015625 -24.300781 6.367188 -25.3125 8.109375 -26.03125 C 9.847656 -26.757812 11.863281 -27.109375 14.15625 -27.078125 L 23.171875 -26.84375 L 23.515625 -19.578125 C 23.515625 -19.578125 23.398438 -19.820312 23.171875 -20.3125 C 22.941406 -20.800781 22.59375 -21.40625 22.125 -22.125 C 21.664062 -22.851562 21.082031 -23.578125 20.375 -24.296875 C 19.664062 -25.015625 18.832031 -25.628906 17.875 -26.140625 C 16.914062 -26.660156 15.832031 -26.9375 14.625 -26.96875 C 12.507812 -27.019531 10.835938 -26.617188 9.609375 -25.765625 C 8.390625 -24.910156 7.765625 -23.878906 7.734375 -22.671875 Z M 7.734375 -22.671875 "/></g></g></g><g fill="#ffffff" fill-opacity="1"><g transform="translate(28.680117, 28.912372)"><g><path d="M 25.6875 -3.640625 C 25.757812 -3.359375 25.925781 -3.128906 26.1875 -2.953125 C 26.445312 -2.785156 26.722656 -2.710938 27.015625 -2.734375 C 27.316406 -2.765625 27.53125 -2.910156 27.65625 -3.171875 C 27.269531 -2.367188 26.726562 -1.707031 26.03125 -1.1875 C 25.332031 -0.675781 24.546875 -0.316406 23.671875 -0.109375 C 22.585938 0.0859375 21.539062 0.0234375 20.53125 -0.296875 C 19.53125 -0.617188 18.65625 -1.160156 17.90625 -1.921875 C 17.164062 -2.679688 16.648438 -3.601562 16.359375 -4.6875 L 16.015625 -5.953125 C 15.941406 -5.253906 15.75 -4.597656 15.4375 -3.984375 C 14.769531 -2.617188 13.851562 -1.566406 12.6875 -0.828125 C 11.53125 -0.0976562 10.285156 0.335938 8.953125 0.484375 C 7.628906 0.628906 6.363281 0.472656 5.15625 0.015625 C 3.957031 -0.429688 2.953125 -1.148438 2.140625 -2.140625 C 1.328125 -3.140625 0.882812 -4.398438 0.8125 -5.921875 C 0.757812 -7.160156 1.019531 -8.195312 1.59375 -9.03125 C 2.175781 -9.875 2.953125 -10.554688 3.921875 -11.078125 C 4.890625 -11.609375 5.921875 -12.015625 7.015625 -12.296875 C 8.117188 -12.585938 9.160156 -12.789062 10.140625 -12.90625 C 11.117188 -13.019531 11.921875 -13.085938 12.546875 -13.109375 C 13.179688 -13.140625 13.5 -13.15625 13.5 -13.15625 L 14.046875 -13.15625 L 13 -16.875 C 12.769531 -17.769531 12.289062 -18.4375 11.5625 -18.875 C 10.84375 -19.3125 10.0625 -19.5 9.21875 -19.4375 C 8.382812 -19.375 7.660156 -18.992188 7.046875 -18.296875 C 7.992188 -19.378906 9.078125 -20.171875 10.296875 -20.671875 C 11.523438 -21.179688 12.78125 -21.421875 14.0625 -21.390625 C 15.34375 -21.367188 16.566406 -21.085938 17.734375 -20.546875 C 18.910156 -20.003906 19.929688 -19.234375 20.796875 -18.234375 C 21.660156 -17.242188 22.285156 -16.050781 22.671875 -14.65625 L 24.296875 -8.78125 Z M 13.46875 -3.09375 C 14.34375 -3.21875 15 -3.644531 15.4375 -4.375 C 15.925781 -5.09375 16.039062 -5.878906 15.78125 -6.734375 L 14.046875 -13.03125 C 13.117188 -12.800781 12.296875 -12.34375 11.578125 -11.65625 C 10.867188 -10.976562 10.332031 -10.179688 9.96875 -9.265625 C 9.613281 -8.347656 9.460938 -7.390625 9.515625 -6.390625 C 9.566406 -5.453125 9.941406 -4.660156 10.640625 -4.015625 C 11.335938 -3.378906 12.160156 -3.0625 13.109375 -3.0625 C 13.265625 -3.0625 13.382812 -3.070312 13.46875 -3.09375 Z M 13.46875 -3.09375 "/></g></g></g><g fill="#ffffff" fill-opacity="1"><g transform="translate(55.442693, 28.912372)"><g><path d="M 29.484375 0 C 29.710938 -0.175781 29.882812 -0.503906 30 -0.984375 C 30.113281 -1.460938 30.171875 -2.207031 30.171875 -3.21875 L 30.171875 -16.59375 C 30.171875 -16.644531 30.171875 -16.691406 30.171875 -16.734375 C 30.171875 -16.773438 30.171875 -16.804688 30.171875 -16.828125 C 30.117188 -17.546875 29.859375 -18.09375 29.390625 -18.46875 C 28.929688 -18.84375 28.40625 -19.03125 27.8125 -19.03125 C 27.21875 -19.03125 26.675781 -18.851562 26.1875 -18.5 C 25.695312 -18.15625 25.398438 -17.625 25.296875 -16.90625 C 25.242188 -16.488281 25.195312 -16.070312 25.15625 -15.65625 C 25.125 -15.25 25.109375 -14.828125 25.109375 -14.390625 L 25.109375 -3.21875 C 25.109375 -2.207031 25.171875 -1.460938 25.296875 -0.984375 C 25.429688 -0.503906 25.597656 -0.175781 25.796875 0 L 15.671875 0 C 15.898438 -0.175781 16.070312 -0.503906 16.1875 -0.984375 C 16.300781 -1.460938 16.359375 -2.207031 16.359375 -3.21875 L 16.359375 -16.59375 C 16.359375 -16.644531 16.359375 -16.691406 16.359375 -16.734375 C 16.359375 -16.773438 16.359375 -16.804688 16.359375 -16.828125 C 16.304688 -17.546875 16.046875 -18.09375 15.578125 -18.46875 C 15.117188 -18.84375 14.59375 -19.03125 14 -19.03125 C 13.40625 -19.03125 12.863281 -18.851562 12.375 -18.5 C 11.882812 -18.15625 11.585938 -17.625 11.484375 -16.90625 C 11.429688 -16.488281 11.382812 -16.070312 11.34375 -15.65625 C 11.3125 -15.25 11.296875 -14.828125 11.296875 -14.390625 L 11.296875 -3.21875 C 11.296875 -2.207031 11.359375 -1.460938 11.484375 -0.984375 C 11.617188 -0.503906 11.789062 -0.175781 12 0 L 1.859375 0 C 2.085938 -0.175781 2.257812 -0.503906 2.375 -0.984375 C 2.488281 -1.460938 2.546875 -2.207031 2.546875 -3.21875 L 2.546875 -19.15625 C 2.546875 -19.613281 2.332031 -19.972656 1.90625 -20.234375 C 1.488281 -20.492188 1.113281 -20.457031 0.78125 -20.125 C 1.90625 -21.382812 3.332031 -22.015625 5.0625 -22.015625 C 6.144531 -22.015625 7.15625 -21.773438 8.09375 -21.296875 C 9.039062 -20.816406 9.804688 -20.125 10.390625 -19.21875 C 10.972656 -18.320312 11.273438 -17.242188 11.296875 -15.984375 L 11.40625 -16.796875 C 11.644531 -18.367188 12.394531 -19.617188 13.65625 -20.546875 C 14.789062 -21.390625 15.984375 -21.863281 17.234375 -21.96875 C 18.484375 -22.070312 19.675781 -21.878906 20.8125 -21.390625 C 21.945312 -20.898438 22.898438 -20.160156 23.671875 -19.171875 C 24.453125 -18.179688 24.914062 -17.015625 25.0625 -15.671875 L 25.21875 -16.796875 C 25.457031 -18.367188 26.207031 -19.617188 27.46875 -20.546875 C 28.65625 -21.441406 29.910156 -21.921875 31.234375 -21.984375 C 32.566406 -22.054688 33.8125 -21.800781 34.96875 -21.21875 C 36.132812 -20.632812 37.082031 -19.785156 37.8125 -18.671875 C 38.550781 -17.566406 38.921875 -16.28125 38.921875 -14.8125 L 38.921875 -3.21875 C 38.921875 -2.207031 38.984375 -1.460938 39.109375 -0.984375 C 39.242188 -0.503906 39.410156 -0.175781 39.609375 0 Z M 29.484375 0 "/></g></g></g><g fill="#ffffff" fill-opacity="1"><g transform="translate(95.819066, 28.912372)"><g><path d="M 22.5625 -6.8125 C 22.96875 -7.21875 23.300781 -7.640625 23.5625 -8.078125 C 22.894531 -6.171875 21.769531 -4.550781 20.1875 -3.21875 C 19.007812 -2.207031 17.695312 -1.421875 16.25 -0.859375 C 14.800781 -0.304688 13.304688 -0.0195312 11.765625 0 C 10.242188 0 8.816406 -0.28125 7.484375 -0.84375 C 6.160156 -1.414062 4.992188 -2.203125 3.984375 -3.203125 C 2.972656 -4.210938 2.1875 -5.378906 1.625 -6.703125 C 1.0625 -8.035156 0.78125 -9.460938 0.78125 -10.984375 C 0.78125 -12.503906 1.0625 -13.9375 1.625 -15.28125 C 2.1875 -16.625 2.972656 -17.796875 3.984375 -18.796875 C 4.992188 -19.804688 6.160156 -20.59375 7.484375 -21.15625 C 8.816406 -21.726562 10.242188 -22.015625 11.765625 -22.015625 L 12.765625 -22.015625 C 14.460938 -22.015625 16.050781 -21.644531 17.53125 -20.90625 C 19.019531 -20.175781 20.285156 -19.171875 21.328125 -17.890625 C 22.378906 -16.617188 23.097656 -15.144531 23.484375 -13.46875 L 9.25 -13.46875 L 9.25 -12.734375 C 9.25 -11.390625 9.546875 -10.140625 10.140625 -8.984375 C 10.734375 -7.835938 11.550781 -6.878906 12.59375 -6.109375 C 13.632812 -5.335938 14.8125 -4.863281 16.125 -4.6875 C 17.3125 -4.5 18.46875 -4.597656 19.59375 -4.984375 C 20.71875 -5.378906 21.707031 -5.988281 22.5625 -6.8125 Z M 9.25 -19 L 9.25 -13.625 L 15.015625 -13.625 L 15.015625 -19 C 15.015625 -19.789062 14.734375 -20.460938 14.171875 -21.015625 C 13.617188 -21.578125 12.941406 -21.859375 12.140625 -21.859375 C 11.347656 -21.859375 10.664062 -21.578125 10.09375 -21.015625 C 9.53125 -20.460938 9.25 -19.789062 9.25 -19 Z M 9.25 -19 "/></g></g></g><g fill="#ffffff" fill-opacity="1"><g transform="translate(120.145441, 28.912372)"><g><path d="M 14.578125 0 C 14.785156 -0.175781 14.953125 -0.503906 15.078125 -0.984375 C 15.210938 -1.460938 15.28125 -2.207031 15.28125 -3.21875 C 15.28125 -3.21875 15.28125 -3.644531 15.28125 -4.5 C 15.28125 -5.363281 15.28125 -6.484375 15.28125 -7.859375 C 15.28125 -9.242188 15.28125 -10.707031 15.28125 -12.25 C 15.28125 -13.800781 15.28125 -15.25 15.28125 -16.59375 C 15.28125 -17.132812 15.140625 -17.632812 14.859375 -18.09375 C 14.578125 -18.5625 14.191406 -18.925781 13.703125 -19.1875 C 12.640625 -19.726562 11.617188 -19.640625 10.640625 -18.921875 L 10.59375 -18.875 C 10.5 -18.851562 10.375 -18.738281 10.21875 -18.53125 L 10.21875 -3.21875 C 10.21875 -2.207031 10.273438 -1.460938 10.390625 -0.984375 C 10.503906 -0.503906 10.675781 -0.175781 10.90625 0 L 0.78125 0 C 0.976562 -0.175781 1.140625 -0.503906 1.265625 -0.984375 C 1.398438 -1.460938 1.46875 -2.207031 1.46875 -3.21875 L 1.46875 -23.875 C 1.46875 -24.875 1.398438 -25.613281 1.265625 -26.09375 C 1.140625 -26.570312 0.976562 -26.898438 0.78125 -27.078125 L 10.90625 -27.078125 C 10.675781 -26.898438 10.503906 -26.570312 10.390625 -26.09375 C 10.273438 -25.613281 10.21875 -24.875 10.21875 -23.875 L 10.21875 -18.71875 C 10.289062 -18.800781 10.367188 -18.882812 10.453125 -18.96875 C 10.546875 -19.0625 10.609375 -19.125 10.640625 -19.15625 L 12.578125 -20.546875 C 13.765625 -21.441406 15.019531 -21.921875 16.34375 -21.984375 C 17.675781 -22.054688 18.921875 -21.800781 20.078125 -21.21875 C 21.234375 -20.632812 22.179688 -19.785156 22.921875 -18.671875 C 23.660156 -17.566406 24.03125 -16.28125 24.03125 -14.8125 L 24.03125 -3.21875 C 24.03125 -2.207031 24.085938 -1.460938 24.203125 -0.984375 C 24.316406 -0.503906 24.476562 -0.175781 24.6875 0 Z M 14.578125 0 "/></g></g></g></g></g></g><g clip-path="url(#62cc14e8b8)"><g transform="matrix(1, 0, 0, 1, 25, -0.000000000000000847)"><g clip-path="url(#b0f74cef94)"><g clip-path="url(#640f9be14e)"><g transform="matrix(1, 0, 0, 1, 1, -0.000000000000000847)"><g clip-path="url(#db9ca652f4)"><g clip-path="url(#3fc74b39d6)"><g mask="url(#274a06dc44)"><g transform="matrix(1, 0, 0, 1, 0.000000000000003553, -0.000000000000000847)"><g clip-path="url(#e0aa980c30)"><g clip-path="url(#c0d0291715)"><path fill="url(#9c85956068)" d="M 23.269531 0.0195312 L 23.269531 74.980469 L 194.761719 74.980469 L 194.761719 0.0195312 Z M 23.269531 0.0195312 " fill-rule="nonzero"/></g></g></g></g></g></g></g></g></g></g></g></g></g></g></svg>